General
Unique ID                                : 39047179354645032346437867496315415211 (0x1D603694085336B58F2339B746B9EAAB)
Complete name                            : Deep.Impact.1998.UHD.BluRay.2160p.TrueHD.5.1.DV.HEVC.HYBRID.REMUX-FraMeSToR.mkv
Format                                   : Matroska
Format version                           : Version 4
File size                                : 53.8 GiB
Duration                                 : 2 h 1 min
Overall bit rate mode                    : Variable
Overall bit rate                         : 63.6 Mb/s
Frame rate                               : 23.976 FPS
Movie name                               : Deep Impact (1998)
Encoded date                             : 2023-05-03 01:30:27 UTC
Writing application                      : mkvmerge v76.0 ('Celebration') 64-bit
Writing library                          : libebml v1.4.4 + libmatroska v1.7.1
IMDB                                     : tt0120647
TMDB                                     : movie/8656

Video
ID                                       : 1
Format                                   : HEVC
Format/Info                              : High Efficiency Video Coding
Format profile                           : Main 10@L5.1@High
HDR format                               : Dolby Vision, Version 1.0, dvhe.07.06, BL+EL+RPU, Blu-ray compatible / SMPTE ST 2086, HDR10 compatible
Codec ID                                 : V_MPEGH/ISO/HEVC
Duration                                 : 2 h 1 min
Bit rate                                 : 58.1 Mb/s
Width                                    : 3 840 pixels
Height                                   : 2 160 pixels
Display aspect ratio                     : 16:9
Frame rate mode                          : Constant
Frame rate                               : 23.976 (24000/1001) FPS
Color space                              : YUV
Chroma subsampling                       : 4:2:0 (Type 2)
Bit depth                                : 10 bits
Bits/(Pixel*Frame)                       : 0.292
Stream size                              : 49.2 GiB (91%)
Default                                  : Yes
Forced                                   : No
Color range                              : Limited
Color primaries                          : BT.2020
Transfer characteristics                 : PQ
Matrix coefficients                      : BT.2020 non-constant
Mastering display color primaries        : Display P3
Mastering display luminance              : min: 0.0001 cd/m2, max: 1000 cd/m2

Audio #1
ID                                       : 2
Format                                   : MLP FBA
Format/Info                              : Meridian Lossless Packing FBA
Commercial name                          : Dolby TrueHD
Codec ID                                 : A_TRUEHD
Duration                                 : 2 h 1 min
Bit rate mode                            : Variable
Bit rate                                 : 3 963 kb/s
Maximum bit rate                         : 5 544 kb/s
Channel(s)                               : 6 channels
Channel layout                           : L R C LFE Ls Rs
Sampling rate                            : 48.0 kHz
Frame rate                               : 1 200.000 FPS (40 SPF)
Compression mode                         : Lossless
Delay relative to video                  : 1 ms
Stream size                              : 3.35 GiB (6%)
Title                                    : TrueHD 5.1
Language                                 : English
Default                                  : Yes
Forced                                   : No

Audio #2
ID                                       : 3
Format                                   : AC-3
Format/Info                              : Audio Coding 3
Commercial name                          : Dolby Digital
Codec ID                                 : A_AC3
Duration                                 : 2 h 1 min
Bit rate mode                            : Constant
Bit rate                                 : 640 kb/s
Channel(s)                               : 6 channels
Channel layout                           : L R C LFE Ls Rs
Sampling rate                            : 48.0 kHz
Frame rate                               : 31.250 FPS (1536 SPF)
Compression mode                         : Lossy
Delay relative to video                  : 23 ms
Stream size                              : 555 MiB (1%)
Title                                    : AC-3 5.1
Language                                 : English
Service kind                             : Complete Main
Default                                  : No
Forced                                   : No

Audio #3
ID                                       : 4
Format                                   : AC-3
Format/Info                              : Audio Coding 3
Commercial name                          : Dolby Digital
Format settings                          : Dolby Surround
Codec ID                                 : A_AC3
Duration                                 : 2 h 1 min
Bit rate mode                            : Constant
Bit rate                                 : 224 kb/s
Channel(s)                               : 2 channels
Channel layout                           : L R
Sampling rate                            : 48.0 kHz
Frame rate                               : 31.250 FPS (1536 SPF)
Compression mode                         : Lossy
Delay relative to video                  : 23 ms
Stream size                              : 194 MiB (0%)
Title                                    : Commentary by Director Mimi Leder & Visual Effects Supervisor Scott Farrar
Language                                 : English
Service kind                             : Complete Main
Default                                  : No
Forced                                   : No

Text #1
ID                                       : 5
Format                                   : PGS
Codec ID                                 : S_HDMV/PGS
Codec ID/Info                            : Picture based subtitle format used on BDs/HD-DVDs
Duration                                 : 1 h 51 min
Bit rate                                 : 38.8 kb/s
Frame rate                               : 0.407 FPS
Count of elements                        : 2732
Stream size                              : 31.0 MiB (0%)
Title                                    : English
Language                                 : English
Default                                  : No
Forced                                   : No

Text #2
ID                                       : 6
Format                                   : PGS
Codec ID                                 : S_HDMV/PGS
Codec ID/Info                            : Picture based subtitle format used on BDs/HD-DVDs
Duration                                 : 1 h 52 min
Bit rate                                 : 40.8 kb/s
Frame rate                               : 0.513 FPS
Count of elements                        : 3452
Stream size                              : 32.7 MiB (0%)
Title                                    : English (SDH)
Language                                 : English
Default                                  : No
Forced                                   : No

Text #3
ID                                       : 7
Format                                   : PGS
Codec ID                                 : S_HDMV/PGS
Codec ID/Info                            : Picture based subtitle format used on BDs/HD-DVDs
Duration                                 : 1 h 51 min
Bit rate                                 : 29.1 kb/s
Frame rate                               : 0.341 FPS
Count of elements                        : 2292
Stream size                              : 23.3 MiB (0%)
Title                                    : Danish
Language                                 : Danish
Default                                  : No
Forced                                   : No

Text #4
ID                                       : 8
Format                                   : PGS
Codec ID                                 : S_HDMV/PGS
Codec ID/Info                            : Picture based subtitle format used on BDs/HD-DVDs
Duration                                 : 1 h 51 min
Bit rate                                 : 25.6 kb/s
Frame rate                               : 0.277 FPS
Count of elements                        : 1856
Stream size                              : 20.4 MiB (0%)
Title                                    : Dutch
Language                                 : Dutch
Default                                  : No
Forced                                   : No

Text #5
ID                                       : 9
Format                                   : PGS
Codec ID                                 : S_HDMV/PGS
Codec ID/Info                            : Picture based subtitle format used on BDs/HD-DVDs
Duration                                 : 1 h 52 min
Bit rate                                 : 28.6 kb/s
Frame rate                               : 0.353 FPS
Count of elements                        : 2374
Stream size                              : 22.9 MiB (0%)
Title                                    : Finnish
Language                                 : Finnish
Default                                  : No
Forced                                   : No

Text #6
ID                                       : 10
Format                                   : PGS
Codec ID                                 : S_HDMV/PGS
Codec ID/Info                            : Picture based subtitle format used on BDs/HD-DVDs
Duration                                 : 1 h 52 min
Bit rate                                 : 30.4 kb/s
Frame rate                               : 0.350 FPS
Count of elements                        : 2360
Stream size                              : 24.4 MiB (0%)
Title                                    : French (Parisian)
Language                                 : French (FR)
Default                                  : No
Forced                                   : No

Text #7
ID                                       : 11
Format                                   : PGS
Codec ID                                 : S_HDMV/PGS
Codec ID/Info                            : Picture based subtitle format used on BDs/HD-DVDs
Duration                                 : 1 h 53 min
Bit rate                                 : 36.2 kb/s
Frame rate                               : 0.369 FPS
Count of elements                        : 2506
Stream size                              : 29.3 MiB (0%)
Title                                    : German
Language                                 : German
Default                                  : No
Forced                                   : No

Text #8
ID                                       : 12
Format                                   : PGS
Codec ID                                 : S_HDMV/PGS
Codec ID/Info                            : Picture based subtitle format used on BDs/HD-DVDs
Duration                                 : 1 h 51 min
Bit rate                                 : 35.2 kb/s
Frame rate                               : 0.371 FPS
Count of elements                        : 2484
Stream size                              : 28.1 MiB (0%)
Title                                    : Italian
Language                                 : Italian
Default                                  : No
Forced                                   : No

Text #9
ID                                       : 13
Format                                   : PGS
Codec ID                                 : S_HDMV/PGS
Codec ID/Info                            : Picture based subtitle format used on BDs/HD-DVDs
Duration                                 : 1 h 51 min
Bit rate                                 : 21.0 kb/s
Frame rate                               : 0.390 FPS
Count of elements                        : 2622
Stream size                              : 16.8 MiB (0%)
Title                                    : Japanese
Language                                 : Japanese
Default                                  : No
Forced                                   : No

Text #10
ID                                       : 14
Format                                   : PGS
Codec ID                                 : S_HDMV/PGS
Codec ID/Info                            : Picture based subtitle format used on BDs/HD-DVDs
Duration                                 : 1 h 51 min
Bit rate                                 : 27.2 kb/s
Frame rate                               : 0.337 FPS
Count of elements                        : 2264
Stream size                              : 21.8 MiB (0%)
Title                                    : Norwegian
Language                                 : Norwegian
Default                                  : No
Forced                                   : No

Text #11
ID                                       : 15
Format                                   : PGS
Codec ID                                 : S_HDMV/PGS
Codec ID/Info                            : Picture based subtitle format used on BDs/HD-DVDs
Duration                                 : 1 h 52 min
Bit rate                                 : 34.1 kb/s
Frame rate                               : 0.371 FPS
Count of elements                        : 2498
Stream size                              : 27.4 MiB (0%)
Title                                    : Portuguese (Brazilian)
Language                                 : Portuguese (BR)
Default                                  : No
Forced                                   : No

Text #12
ID                                       : 16
Format                                   : PGS
Codec ID                                 : S_HDMV/PGS
Codec ID/Info                            : Picture based subtitle format used on BDs/HD-DVDs
Duration                                 : 1 h 51 min
Bit rate                                 : 33.3 kb/s
Frame rate                               : 0.373 FPS
Count of elements                        : 2500
Stream size                              : 26.6 MiB (0%)
Title                                    : Spanish (Castilian)
Language                                 : Spanish (ES)
Default                                  : No
Forced                                   : No

Text #13
ID                                       : 17
Format                                   : PGS
Codec ID                                 : S_HDMV/PGS
Codec ID/Info                            : Picture based subtitle format used on BDs/HD-DVDs
Duration                                 : 1 h 53 min
Bit rate                                 : 34.6 kb/s
Frame rate                               : 0.407 FPS
Count of elements                        : 2779
Stream size                              : 28.2 MiB (0%)
Title                                    : Spanish (Latin American)
Language                                 : Spanish (Latin America)
Default                                  : No
Forced                                   : No

Text #14
ID                                       : 18
Format                                   : PGS
Codec ID                                 : S_HDMV/PGS
Codec ID/Info                            : Picture based subtitle format used on BDs/HD-DVDs
Duration                                 : 1 h 51 min
Bit rate                                 : 27.7 kb/s
Frame rate                               : 0.332 FPS
Count of elements                        : 2222
Stream size                              : 22.1 MiB (0%)
Title                                    : Swedish
Language                                 : Swedish
Default                                  : No
Forced                                   : No

Text #15
ID                                       : 19
Format                                   : PGS
Codec ID                                 : S_HDMV/PGS
Codec ID/Info                            : Picture based subtitle format used on BDs/HD-DVDs
Duration                                 : 1 h 57 min
Bit rate                                 : 47.4 kb/s
Frame rate                               : 0.425 FPS
Count of elements                        : 2994
Stream size                              : 39.8 MiB (0%)
Title                                    : English (Commentary)
Language                                 : English
Default                                  : No
Forced                                   : No

Text #16
ID                                       : 20
Format                                   : PGS
Codec ID                                 : S_HDMV/PGS
Codec ID/Info                            : Picture based subtitle format used on BDs/HD-DVDs
Duration                                 : 1 h 57 min
Bit rate                                 : 40.4 kb/s
Frame rate                               : 0.381 FPS
Count of elements                        : 2688
Stream size                              : 33.9 MiB (0%)
Title                                    : French (Parisian) (Commentary)
Language                                 : French (FR)
Default                                  : No
Forced                                   : No

Text #17
ID                                       : 21
Format                                   : PGS
Codec ID                                 : S_HDMV/PGS
Codec ID/Info                            : Picture based subtitle format used on BDs/HD-DVDs
Duration                                 : 1 h 57 min
Bit rate                                 : 43.9 kb/s
Frame rate                               : 0.381 FPS
Count of elements                        : 2686
Stream size                              : 36.9 MiB (0%)
Title                                    : German (Commentary)
Language                                 : German
Default                                  : No
Forced                                   : No

Text #18
ID                                       : 22
Format                                   : PGS
Codec ID                                 : S_HDMV/PGS
Codec ID/Info                            : Picture based subtitle format used on BDs/HD-DVDs
Duration                                 : 1 h 57 min
Bit rate                                 : 41.4 kb/s
Frame rate                               : 0.381 FPS
Count of elements                        : 2684
Stream size                              : 34.8 MiB (0%)
Title                                    : Italian (Commentary)
Language                                 : Italian
Default                                  : No
Forced                                   : No

Text #19
ID                                       : 23
Format                                   : PGS
Codec ID                                 : S_HDMV/PGS
Codec ID/Info                            : Picture based subtitle format used on BDs/HD-DVDs
Duration                                 : 1 h 57 min
Bit rate                                 : 39.2 kb/s
Frame rate                               : 0.379 FPS
Count of elements                        : 2670
Stream size                              : 33.0 MiB (0%)
Title                                    : Spanish (Castilian) (Commentary)
Language                                 : Spanish (ES)
Default                                  : No
Forced                                   : No

Menu
00:00:00.000                             : en:A Distant Discovery
00:02:36.615                             : en:Dr. Wolf
00:07:00.754                             : en:Secretary Rittenhouse
00:10:52.944                             : en:Ellie
00:17:09.987                             : en:A Presidential Favor
00:20:36.861                             : en:Extinction Level Event
00:22:20.631                             : en:Life Goes On
00:25:27.025                             : en:The Wolf-Biederman Comet
00:34:59.931                             : en:None of You Want Me Here
00:39:10.431                             : en:Messiah Mission
00:43:57.885                             : en:The Surface of the Comet
00:51:44.935                             : en:Sunrise
00:56:16.540                             : en:Unsuccessful Detonation
01:00:14.820                             : en:Planning for the Worst
01:05:00.814                             : en:The National Lottery
01:09:41.219                             : en:Family
01:13:52.345                             : en:Seeing Things Differently
01:18:09.768                             : en:Not on the List
01:20:07.302                             : en:Too Late
01:22:51.466                             : en:The Ark Cave
01:25:19.323                             : en:Not an Orphan
01:27:45.844                             : en:The Failure of the Titan Missiles
01:31:52.590                             : en:Fish's Plan
01:34:22.073                             : en:Drawing Straws
01:38:44.001                             : en:Searching for Sarah
01:40:54.423                             : en:Memories of a Perfect Day
01:43:17.108                             : en:Biederman Strikes
01:46:14.118                             : en:Final Goodbyes
01:51:42.487                             : en:Let Us Begin...
01:53:22.838                             : en:End Titles
